<svg xmlns="http://www.w3.org/2000/svg" xmlns:xlink="http://www.w3.org/1999/xlink" version="1.1" x="0px" y="0px" viewBox="0 0 96 120" style="enable-background:new 0 0 96 96;" xml:space="preserve"><style type="text/css">
	.st0{fill-rule:evenodd;clip-rule:evenodd;}
</style><path d="M36.102,88.63c2.713,0,4.92-2.207,4.92-4.92c0-2.713-2.207-4.92-4.92-4.92s-4.92,2.207-4.92,4.92  C31.181,86.423,33.389,88.63,36.102,88.63z M36.102,81.647c1.138,0,2.063,0.925,2.063,2.063s-0.926,2.063-2.063,2.063  s-2.063-0.925-2.063-2.063S34.964,81.647,36.102,81.647z M67.832,88.63c2.713,0,4.92-2.207,4.92-4.92c0-2.713-2.207-4.92-4.92-4.92  c-2.713,0-4.92,2.207-4.92,4.92C62.912,86.423,65.119,88.63,67.832,88.63z M67.832,81.647c1.138,0,2.063,0.925,2.063,2.063  s-0.926,2.063-2.063,2.063c-1.138,0-2.063-0.925-2.063-2.063S66.694,81.647,67.832,81.647z M80.902,46.988  c0.017,0.136,0.027,0.296,0.031,0.476c0.038,1.582-0.684,2.76-1.769,3.584c-0.906,0.688-2.061,1.1-3.194,1.271v0.996  c0,0.712-0.577,1.289-1.289,1.289c-0.712,0-1.289-0.577-1.289-1.289v-1.02c-0.933-0.163-1.824-0.5-2.592-1.011  c-1.118-0.745-1.975-1.844-2.338-3.297c-0.17-0.689,0.252-1.386,0.941-1.556c0.689-0.17,1.386,0.252,1.556,0.941  c0.193,0.774,0.655,1.364,1.26,1.767c0.736,0.49,1.678,0.724,2.633,0.701c0.162-0.004,0.354-0.019,0.573-0.045  c0.806-0.098,1.613-0.355,2.187-0.791c0.46-0.349,0.767-0.838,0.752-1.479c-0.001-0.05-0.008-0.128-0.021-0.235  c-0.098-0.805-0.555-1.342-1.164-1.71c-0.759-0.458-1.757-0.701-2.692-0.854c-1.161-0.191-2.42-0.537-3.444-1.206  c-1.174-0.767-2.018-1.9-2.1-3.59c-0.082-1.682,0.643-3.032,1.786-3.961c0.744-0.605,1.669-1.021,2.653-1.219l0.008-0.002v-1.038  c0-0.712,0.577-1.289,1.289-1.289c0.712,0,1.289,0.577,1.289,1.289v1.018c0.13,0.025,0.26,0.053,0.388,0.086  c1.705,0.432,3.257,1.554,4.072,3.494c0.275,0.656-0.034,1.411-0.69,1.686c-0.656,0.275-1.411-0.034-1.686-0.69  c-0.465-1.108-1.349-1.748-2.32-1.994c-0.611-0.155-1.251-0.164-1.846-0.044c-0.58,0.117-1.116,0.354-1.536,0.695  c-0.537,0.436-0.877,1.066-0.84,1.847c0.035,0.722,0.41,1.216,0.932,1.556c0.672,0.438,1.588,0.68,2.458,0.823  c1.203,0.197,2.515,0.526,3.608,1.187C79.754,44.126,80.692,45.254,80.902,46.988z M35.647,27.168  c0.377,0.445,0.906,0.689,1.489,0.689c0.583,0,1.112-0.245,1.49-0.69l7.229-8.514c0.499-0.587,0.607-1.386,0.284-2.085  c-0.323-0.699-1.003-1.133-1.773-1.133h-1.939V4.765c0-1.367-1.112-2.479-2.479-2.479h-5.624c-1.367,0-2.479,1.112-2.479,2.479  v10.67h-1.939c-0.77,0-1.449,0.434-1.773,1.133c-0.323,0.699-0.215,1.498,0.284,2.085L35.647,27.168z M33.274,18.292  c0.789,0,1.429-0.64,1.429-1.429V5.143h4.868v11.721c0,0.789,0.64,1.429,1.429,1.429h1.415l-5.278,6.216l-5.278-6.216H33.274z   M55.442,27.168c0.377,0.445,0.906,0.689,1.489,0.689s1.112-0.245,1.489-0.689l0,0l7.23-8.515c0.498-0.587,0.607-1.386,0.284-2.084  c-0.323-0.699-1.003-1.134-1.773-1.134h-1.939V4.765c0-1.367-1.112-2.479-2.479-2.479h-5.624c-1.367,0-2.479,1.112-2.479,2.479  v10.67h-1.939c-0.77,0-1.449,0.434-1.773,1.133c-0.324,0.699-0.215,1.498,0.284,2.085L55.442,27.168z M53.069,18.292  c0.789,0,1.429-0.64,1.429-1.429V5.143h4.868v11.721c0,0.789,0.64,1.429,1.429,1.429h1.415l-5.278,6.216l-5.278-6.216H53.069z   M91.6,43.513c0-9.329-7.59-16.919-16.919-16.919c-4.902,0-9.322,2.096-12.415,5.438H23.873l-2.585-10.709  c-0.378-1.566-1.237-2.913-2.485-3.896c-1.253-0.987-2.763-1.508-4.368-1.508H8.449c-2.233,0-4.049,1.816-4.049,4.049  c0,2.233,1.816,4.049,4.049,4.049h5.177l9.508,39.387c-1.13,0.548-2.173,1.288-3.063,2.178c-2.123,2.123-3.293,4.939-3.293,7.928  c0,2.989,1.169,5.804,3.293,7.928c1.664,1.664,3.782,2.749,6.066,3.134c0.439,5.114,4.739,9.143,9.965,9.143  c5.172,0,9.44-3.945,9.953-8.984h11.825c0.513,5.039,4.781,8.984,9.953,8.984c5.517,0,10.005-4.488,10.005-10.005  c0-5.517-4.488-10.005-10.005-10.005c-2.755,0-5.253,1.119-7.064,2.927H43.165c-1.811-1.807-4.309-2.927-7.064-2.927  c-2.755,0-5.253,1.119-7.064,2.927h-1.039c-0.826,0-1.608-0.327-2.202-0.92c-0.594-0.593-0.92-1.376-0.92-2.202  s0.327-1.608,0.92-2.202c0.593-0.594,1.375-0.92,2.202-0.92h40.41c2.454,0,4.784-0.762,6.739-2.205  c1.941-1.433,3.351-3.434,4.077-5.787l0.881-2.855C86.782,57.275,91.6,50.946,91.6,43.513z M45.169,79.489h13.595  c-0.35,0.749-0.609,1.548-0.765,2.384H45.934C45.778,81.037,45.519,80.238,45.169,79.489z M67.832,76.562  c3.941,0,7.147,3.206,7.147,7.147c0,3.941-3.206,7.147-7.147,7.147s-7.147-3.206-7.147-7.147  C60.685,79.769,63.891,76.562,67.832,76.562z M36.102,76.562c3.941,0,7.147,3.206,7.147,7.147c0,3.941-3.206,7.147-7.147,7.147  s-7.147-3.206-7.147-7.147C28.954,79.769,32.161,76.562,36.102,76.562z M76.494,61.553c-0.545,1.765-1.597,3.263-3.043,4.331  c-1.459,1.077-3.203,1.646-5.042,1.646h-40.41c-1.59,0-3.089,0.624-4.222,1.757c-1.133,1.133-1.757,2.633-1.757,4.222  c0,1.59,0.624,3.089,1.757,4.222c0.909,0.909,2.053,1.489,3.291,1.684c-0.342,0.718-0.603,1.482-0.767,2.281  c-1.582-0.329-3.044-1.114-4.209-2.279c-1.584-1.584-2.456-3.682-2.456-5.908c0-2.226,0.872-4.324,2.456-5.907  c0.896-0.896,1.997-1.587,3.185-1.999c0.695-0.241,1.093-0.97,0.921-1.685L16.211,22.55c-0.097-0.4-0.325-0.758-0.643-1.009  c-0.317-0.25-0.709-0.382-1.133-0.382H8.449c-0.657,0-1.192-0.535-1.192-1.192c0-0.657,0.535-1.192,1.192-1.192h5.986  c0.957,0,1.857,0.31,2.601,0.896c0.739,0.582,1.249,1.385,1.475,2.321l2.849,11.802c0.155,0.641,0.729,1.093,1.389,1.093h37.382  c-0.451,0.759-0.846,1.555-1.176,2.384H24.014c-0.438,0-0.852,0.201-1.122,0.545c-0.271,0.344-0.369,0.793-0.266,1.219l6.039,25.016  c0.155,0.642,0.729,1.093,1.389,1.093h38.355c1.344,0,2.599-0.401,3.627-1.161c1.041-0.769,1.8-1.85,2.194-3.126l0.133-0.432  c0.106,0.002,0.212,0.004,0.319,0.004c0.746,0,1.481-0.049,2.203-0.143L76.494,61.553z M40.919,62.289v-5.562h9.164v5.562H40.919z   M31.178,62.289l-1.343-5.562h8.227v5.562H31.178z M50.083,40.13v5.401h-9.164V40.13H50.083z M58.103,40.13  c-0.223,1.093-0.34,2.225-0.34,3.383c0,0.683,0.042,1.356,0.121,2.018H52.94V40.13H58.103z M50.083,48.388v5.482h-9.164v-5.482  H50.083z M38.062,45.531h-10.93l-1.304-5.401h12.234V45.531z M38.062,48.388v5.482h-8.917l-1.323-5.482H38.062z M52.94,56.727h9.164  v5.562H52.94V56.727z M64.961,57.353c1.914,1.348,4.119,2.309,6.5,2.77c-0.22,0.642-0.605,1.182-1.123,1.564  c-0.534,0.394-1.201,0.602-1.93,0.602h-3.447V57.353z M52.94,53.87v-5.482h5.539c0.606,2.009,1.576,3.862,2.833,5.482H52.94z   M74.681,57.574c-7.754,0-14.062-6.308-14.062-14.062s6.308-14.062,14.062-14.062c7.754,0,14.062,6.308,14.062,14.062  S82.435,57.574,74.681,57.574z"/><text x="0" y="111" fill="#000000" font-size="5px" font-weight="bold" font-family="'Helvetica Neue', Helvetica, Arial-Unicode, Arial, Sans-serif">Created by Eko Purnomo</text><text x="0" y="116" fill="#000000" font-size="5px" font-weight="bold" font-family="'Helvetica Neue', Helvetica, Arial-Unicode, Arial, Sans-serif">from the Noun Project</text></svg>